Coordinates
version=1
nRows=19
nColumns=24
inDegrees=yes

Units are S.I. units (second, meters, Newtons, ...)
Angles are in degrees.

endheader
time	pelvis_tilt	pelvis_list	pelvis_rotation	pelvis_tx	pelvis_ty	pelvis_tz	hip_flexion_r	hip_adduction_r	hip_rotation_r	knee_angle_r	ankle_angle_r	subtalar_angle_r	mtp_angle_r	hip_flexion_l	hip_adduction_l	hip_rotation_l	knee_angle_l	ankle_angle_l	subtalar_angle_l	mtp_angle_l	lumbar_extension	lumbar_bending	lumbar_rotation
      2.56000000	      8.87699889	      6.07326873	     -1.93841785	      0.60042648	      0.93490489	      0.01211496	    -10.41928848	     -7.59137630	     -2.76156368	    -52.20985393	      3.10405256	     -7.27023298	     51.77101859	      6.90643726	      8.70108373	     -8.57714222	    -14.68330743	      8.51369953	    -14.17614860	     22.42366450	    -18.57990115	     -7.92801723	      2.15489476
      2.56500000	      8.68517615	      6.08373539	     -1.97804388	      0.60572232	      0.93510873	      0.01163572	     -9.23214603	     -7.66751078	     -2.49495613	    -53.87246303	      2.03618577	     -7.67582506	     51.19627835	      6.87581072	      8.73632328	     -8.63996707	    -14.93653039	      9.13431081	    -13.94854741	     21.67902725	    -18.40834409	     -7.95124577	      2.19413299
      2.57000000	      8.60727727	      6.13379328	     -2.03030919	      0.61108291	      0.93547677	      0.01117171	     -8.20156179	     -7.79976847	     -2.30465658	    -55.44422531	      1.34896810	     -7.92494689	     49.09563855	      6.67150439	      8.82516445	     -8.69326978	    -15.11059635	      9.93774384	    -13.51496960	     19.00738049	    -18.35201371	     -8.02048882	      2.25449981
      2.57500000	      8.53439723	      6.10561666	     -2.07752953	      0.61637257	      0.93590621	      0.01075394	     -7.19494636	     -7.81787811	     -2.09618222	    -56.88417015	      0.66863800	     -8.43195793	     48.86740139	      6.45245272	      8.83068496	     -8.73760058	    -15.24342421	     10.41271552	    -13.42586581	     18.91595587	    -18.30877050	     -8.00047502	      2.31090684
      2.58000000	      8.37324321	      6.04221206	     -2.08538812	      0.62160980	      0.93623357	      0.01031308	     -6.09623437	     -7.78666415	     -1.92974838	    -58.27050735	      0.23099381	     -8.73173978	     48.18356701	      6.34077629	      8.79099205	     -8.76370952	    -15.40577974	     10.93104477	    -13.21416456	     18.59534315	    -18.17420450	     -7.93009374	      2.32415177
      2.58500000	      8.34241639	      6.01591914	     -2.12826082	      0.62690752	      0.93676104	      0.00992885	     -5.16960488	     -7.80266333	     -1.79754720	    -59.56846356	      0.26382725	     -8.91380984	     45.63122819	      6.02481833	      8.80726473	     -8.76953455	    -15.44842944	     11.49890207	    -12.98269041	     17.19920118	    -18.17156199	     -7.90949458	      2.36844132
      2.59000000	      8.34029960	      5.95911837	     -2.17734491	      0.63218263	      0.93737699	      0.00958419	     -4.29621273	     -7.77429571	     -1.67859239	    -60.73305457	      0.25933370	     -9.38434817	     45.45864206	      5.65854913	      8.79350454	     -8.77458689	    -15.44058621	     11.85313687	    -12.92649788	     17.16246306	    -18.20137097	     -7.85555864	      2.42315204
      2.59500000	      8.15370704	      5.80491717	     -2.14120893	      0.63730698	      0.93771139	      0.00918348	     -3.22109472	     -7.60767337	     -1.59641031	    -61.87167716	      0.59351792	     -9.53810289	     44.38324392	      5.56904289	      8.65551492	     -8.73084895	    -15.60073390	     12.41758943	    -12.70451617	     16.78039854	    -18.04651612	     -7.67153060	      2.42298440
      2.60000000	      8.21087868	      5.73683011	     -2.22403708	      0.64257116	      0.93847039	      0.00892604	     -2.43967026	     -7.55375936	     -1.49265480	    -62.85758788	      0.94469263	    -10.04944622	     44.05769864	      5.08562030	      8.63871279	     -8.72848308	    -15.47837913	     12.65864736	    -12.72343140	     16.67559030	    -18.13584879	     -7.61248180	      2.51926015
      2.60500000	      8.10986152	      5.58637308	     -2.22565181	      0.64773515	      0.93898287	      0.00860663	     -1.48956802	     -7.38788322	     -1.44366235	    -63.83129535	      1.73614109	    -10.05081757	     40.72274489	      4.82586449	      8.52054802	     -8.64906374	    -15.48392945	     13.19175549	    -12.52869985	     15.47401226	    -18.06279283	     -7.44062844	      2.56603313
      2.61000000	      8.06459505	      5.43950256	     -2.25756380	      0.65293176	      0.93962545	      0.00835535	     -0.62582463	     -7.21840160	     -1.39697912	    -64.65500844	      2.29828545	    -10.52383442	     40.53274072	      4.47002660	      8.40917548	     -8.60987470	    -15.40637193	     13.51513170	    -12.46800186	     15.41855851	    -18.04351211	     -7.28136072	      2.63230528
      2.61500000	      7.94243431	      5.28872230	     -2.20850321	      0.65803242	      0.94011217	      0.00800476	      0.31189862	     -7.04967546	     -1.45115748	    -65.44916841	      3.14772723	    -10.69476875	     39.03133859	      4.24601479	      8.28873625	     -8.49541584	    -15.43133082	     13.95230494	    -12.30577897	     14.92887511	    -17.95667690	     -7.09317803	      2.61111160
      2.62000000	      7.89833783	      5.12165242	     -2.22915615	      0.66318316	      0.94076919	      0.00780904	      1.14991952	     -6.84049505	     -1.45455041	    -66.11712509	      3.85524617	    -11.21770735	     37.92166971	      3.87908454	      8.15427568	     -8.42370704	    -15.33457429	     14.27646060	    -12.24123222	     14.59578460	    -17.94027068	     -6.91140370	      2.68756085
      2.62500000	      7.84306411	      4.92413043	     -2.23319194	      0.66831721	      0.94143264	      0.00756967	      1.97821832	     -6.60222979	     -1.48318408	    -66.69888207	      4.69346481	    -11.49745696	     36.50524364	      3.51689948	      7.99447193	     -8.30497383	    -15.22314649	     14.56077222	    -12.24170525	     14.17972302	    -17.91339056	     -6.68508363	      2.76190450
      2.63000000	      7.83155019	      4.74960176	     -2.22268626	      0.67348090	      0.94213453	      0.00735565	      2.73672203	     -6.39014335	     -1.56698513	    -67.18719096	      5.40409134	    -12.01700363	     35.67884113	      3.09643366	      7.85481677	     -8.21293001	    -15.09510233	     14.88022287	    -12.14878967	     13.98634420	    -17.93318945	     -6.48489516	      2.79493921
      2.63500000	      7.79393015	      4.56688189	     -2.21300387	      0.67863688	      0.94282871	      0.00714282	      3.51125454	     -6.16535333	     -1.65787513	    -67.59228454	      6.08545490	    -12.54630197	     34.97221269	      2.68821329	      7.71343433	     -8.08207327	    -14.92741356	     15.10041829	    -12.20185005	     13.83174516	    -17.92100651	     -6.27336907	      2.84123352
      2.64000000	      7.82327687	      4.36715302	     -2.21110040	      0.68381531	      0.94361658	      0.00693483	      4.18388476	     -5.93100866	     -1.75729154	    -67.89403480	      6.78062980	    -12.92230418	     34.91894337	      2.18821733	      7.55690857	     -7.95730025	    -14.72539811	     15.29854410	    -12.23698760	     13.83023350	    -17.97839570	     -6.04320163	      2.93106742
      2.64500000	      7.73904043	      4.11969543	     -2.17971250	      0.68894994	      0.94422951	      0.00679833	      4.97835908	     -5.60764653	     -1.86815787	    -68.15632407	      7.52346332	    -13.30675515	     32.59753519	      1.85319093	      7.31943287	     -7.90443670	    -14.61968805	     15.67138430	    -12.03025567	     13.44668446	    -17.91462797	     -5.75972093	      2.96979838
      2.65000000	      7.76992234	      3.90488149	     -2.14187546	      0.69413933	      0.94503024	      0.00658955	      5.60811104	     -5.34664806	     -2.02805583	    -68.28662887	      8.03607665	    -13.89381145	     32.41933022	      1.32908701	      7.14986126	     -7.72337124	    -14.37068337	     15.82116867	    -12.14824216	     13.40256205	    -17.97349392	     -5.50534557	      3.00493253
